<svg id="visual" viewBox="0 0 900 600" width="900" height="600" xmlns="http://www.w3.org/2000/svg" xmlns:xlink="http://www.w3.org/1999/xlink" version="1.1"><rect x="0" y="0" width="900" height="600" fill="#8a0000"></rect><g fill="#ffffff"><circle r="14" cx="452" cy="101"></circle><circle r="1" cx="538" cy="595"></circle><circle r="5" cx="628" cy="501"></circle><circle r="3" cx="279" cy="446"></circle><circle r="1" cx="464" cy="246"></circle><circle r="2" cx="737" cy="594"></circle><circle r="7" cx="122" cy="426"></circle><circle r="11" cx="103" cy="521"></circle><circle r="1" cx="123" cy="474"></circle><circle r="11" cx="108" cy="92"></circle><circle r="7" cx="545" cy="21"></circle><circle r="3" cx="518" cy="504"></circle><circle r="3" cx="420" cy="334"></circle><circle r="0" cx="24" cy="463"></circle><circle r="8" cx="453" cy="428"></circle><circle r="12" cx="556" cy="107"></circle><circle r="10" cx="736" cy="244"></circle><circle r="2" cx="592" cy="280"></circle><circle r="4" cx="619" cy="33"></circle><circle r="8" cx="724" cy="452"></circle><circle r="10" cx="315" cy="482"></circle><circle r="3" cx="436" cy="80"></circle><circle r="1" cx="370" cy="194"></circle><circle r="11" cx="817" cy="106"></circle><circle r="10" cx="317" cy="161"></circle><circle r="6" cx="408" cy="209"></circle><circle r="3" cx="476" cy="383"></circle><circle r="6" cx="157" cy="598"></circle><circle r="3" cx="184" cy="94"></circle><circle r="9" cx="541" cy="432"></circle><circle r="0" cx="306" cy="52"></circle><circle r="7" cx="365" cy="282"></circle><circle r="8" cx="201" cy="53"></circle><circle r="3" cx="103" cy="280"></circle><circle r="2" cx="485" cy="419"></circle><circle r="7" cx="685" cy="569"></circle><circle r="9" cx="760" cy="284"></circle><circle r="6" cx="674" cy="284"></circle><circle r="9" cx="227" cy="84"></circle><circle r="9" cx="145" cy="527"></circle><circle r="10" cx="369" cy="534"></circle><circle r="12" cx="639" cy="184"></circle><circle r="5" cx="125" cy="561"></circle><circle r="12" cx="580" cy="452"></circle><circle r="3" cx="31" cy="85"></circle><circle r="3" cx="588" cy="580"></circle><circle r="0" cx="750" cy="161"></circle><circle r="12" cx="463" cy="181"></circle><circle r="11" cx="384" cy="16"></circle><circle r="6" cx="592" cy="337"></circle><circle r="7" cx="59" cy="259"></circle><circle r="7" cx="244" cy="35"></circle><circle r="3" cx="619" cy="259"></circle><circle r="0" cx="288" cy="289"></circle><circle r="7" cx="774" cy="584"></circle><circle r="11" cx="450" cy="215"></circle><circle r="3" cx="782" cy="382"></circle><circle r="10" cx="158" cy="253"></circle><circle r="12" cx="343" cy="582"></circle><circle r="10" cx="124" cy="242"></circle><circle r="5" cx="857" cy="147"></circle><circle r="10" cx="389" cy="253"></circle><circle r="1" cx="789" cy="487"></circle><circle r="1" cx="787" cy="140"></circle><circle r="12" cx="1" cy="544"></circle><circle r="2" cx="705" cy="254"></circle><circle r="12" cx="816" cy="170"></circle><circle r="11" cx="303" cy="368"></circle><circle r="10" cx="224" cy="596"></circle><circle r="12" cx="537" cy="55"></circle><circle r="6" cx="746" cy="411"></circle><circle r="3" cx="644" cy="235"></circle><circle r="4" cx="894" cy="231"></circle><circle r="6" cx="505" cy="309"></circle><circle r="3" cx="262" cy="169"></circle><circle r="2" cx="400" cy="383"></circle><circle r="12" cx="577" cy="79"></circle><circle r="3" cx="798" cy="429"></circle><circle r="12" cx="392" cy="351"></circle><circle r="4" cx="879" cy="172"></circle><circle r="5" cx="462" cy="589"></circle><circle r="8" cx="820" cy="242"></circle><circle r="5" cx="119" cy="134"></circle><circle r="5" cx="29" cy="205"></circle><circle r="10" cx="533" cy="547"></circle><circle r="6" cx="692" cy="508"></circle><circle r="3" cx="103" cy="595"></circle><circle r="5" cx="523" cy="343"></circle><circle r="7" cx="597" cy="422"></circle><circle r="9" cx="883" cy="25"></circle><circle r="1" cx="310" cy="410"></circle><circle r="2" cx="268" cy="270"></circle><circle r="7" cx="706" cy="382"></circle><circle r="3" cx="205" cy="400"></circle><circle r="1" cx="92" cy="402"></circle><circle r="9" cx="547" cy="288"></circle><circle r="6" cx="160" cy="165"></circle><circle r="11" cx="17" cy="36"></circle><circle r="5" cx="842" cy="35"></circle><circle r="8" cx="683" cy="7"></circle><circle r="3" cx="621" cy="408"></circle><circle r="3" cx="837" cy="411"></circle><circle r="11" cx="783" cy="525"></circle><circle r="0" cx="57" cy="437"></circle><circle r="8" cx="40" cy="127"></circle><circle r="6" cx="669" cy="446"></circle><circle r="11" cx="340" cy="305"></circle><circle r="1" cx="51" cy="490"></circle><circle r="6" cx="41" cy="357"></circle><circle r="6" cx="785" cy="34"></circle><circle r="1" cx="284" cy="417"></circle><circle r="5" cx="300" cy="2"></circle><circle r="8" cx="322" cy="84"></circle><circle r="2" cx="350" cy="106"></circle><circle r="6" cx="591" cy="517"></circle><circle r="3" cx="249" cy="448"></circle><circle r="5" cx="156" cy="193"></circle><circle r="1" cx="628" cy="309"></circle><circle r="3" cx="452" cy="305"></circle><circle r="12" cx="152" cy="482"></circle><circle r="6" cx="318" cy="248"></circle><circle r="1" cx="518" cy="12"></circle><circle r="7" cx="726" cy="195"></circle><circle r="8" cx="237" cy="177"></circle><circle r="0" cx="147" cy="13"></circle><circle r="5" cx="241" cy="382"></circle><circle r="12" cx="874" cy="461"></circle><circle r="10" cx="732" cy="347"></circle><circle r="2" cx="241" cy="575"></circle><circle r="3" cx="781" cy="343"></circle><circle r="5" cx="84" cy="347"></circle><circle r="4" cx="649" cy="530"></circle><circle r="6" cx="803" cy="275"></circle><circle r="8" cx="257" cy="515"></circle><circle r="7" cx="281" cy="242"></circle><circle r="12" cx="629" cy="569"></circle><circle r="1" cx="769" cy="467"></circle><circle r="6" cx="213" cy="530"></circle><circle r="10" cx="83" cy="479"></circle><circle r="4" cx="705" cy="345"></circle><circle r="1" cx="349" cy="477"></circle><circle r="11" cx="220" cy="153"></circle><circle r="11" cx="507" cy="265"></circle><circle r="0" cx="859" cy="325"></circle><circle r="0" cx="590" cy="207"></circle><circle r="8" cx="848" cy="206"></circle><circle r="8" cx="67" cy="228"></circle><circle r="3" cx="857" cy="439"></circle><circle r="6" cx="717" cy="36"></circle><circle r="1" cx="271" cy="588"></circle><circle r="4" cx="68" cy="371"></circle><circle r="7" cx="383" cy="455"></circle><circle r="0" cx="377" cy="319"></circle><circle r="6" cx="645" cy="118"></circle><circle r="7" cx="467" cy="348"></circle><circle r="1" cx="18" cy="6"></circle><circle r="0" cx="665" cy="500"></circle><circle r="12" cx="147" cy="60"></circle><circle r="7" cx="829" cy="494"></circle><circle r="1" cx="431" cy="167"></circle><circle r="11" cx="628" cy="462"></circle><circle r="12" cx="781" cy="63"></circle><circle r="2" cx="837" cy="271"></circle><circle r="3" cx="26" cy="407"></circle><circle r="0" cx="94" cy="154"></circle><circle r="3" cx="564" cy="262"></circle><circle r="6" cx="281" cy="473"></circle><circle r="3" cx="725" cy="321"></circle><circle r="12" cx="899" cy="366"></circle><circle r="8" cx="877" cy="83"></circle><circle r="4" cx="1" cy="57"></circle><circle r="4" cx="481" cy="79"></circle><circle r="12" cx="55" cy="180"></circle><circle r="0" cx="559" cy="204"></circle><circle r="10" cx="443" cy="45"></circle><circle r="12" cx="723" cy="512"></circle><circle r="11" cx="817" cy="389"></circle><circle r="7" cx="441" cy="379"></circle><circle r="5" cx="784" cy="226"></circle><circle r="7" cx="324" cy="209"></circle><circle r="9" cx="200" cy="470"></circle><circle r="5" cx="811" cy="558"></circle><circle r="9" cx="401" cy="56"></circle><circle r="12" cx="674" cy="208"></circle><circle r="2" cx="190" cy="178"></circle><circle r="6" cx="508" cy="126"></circle><circle r="3" cx="433" cy="140"></circle><circle r="12" cx="326" cy="435"></circle><circle r="9" cx="372" cy="79"></circle><circle r="9" cx="264" cy="543"></circle><circle r="7" cx="673" cy="92"></circle><circle r="12" cx="693" cy="120"></circle><circle r="11" cx="658" cy="49"></circle><circle r="10" cx="612" cy="135"></circle><circle r="3" cx="351" cy="155"></circle><circle r="5" cx="34" cy="537"></circle><circle r="10" cx="14" cy="518"></circle><circle r="0" cx="163" cy="423"></circle><circle r="12" cx="567" cy="144"></circle><circle r="2" cx="213" cy="341"></circle><circle r="9" cx="419" cy="292"></circle><circle r="2" cx="310" cy="583"></circle><circle r="4" cx="327" cy="542"></circle><circle r="10" cx="216" cy="560"></circle><circle r="8" cx="235" cy="247"></circle><circle r="7" cx="397" cy="92"></circle><circle r="3" cx="482" cy="486"></circle><circle r="12" cx="852" cy="518"></circle><circle r="0" cx="475" cy="133"></circle><circle r="8" cx="559" cy="482"></circle><circle r="5" cx="109" cy="360"></circle><circle r="10" cx="74" cy="548"></circle><circle r="12" cx="749" cy="214"></circle><circle r="7" cx="280" cy="383"></circle><circle r="4" cx="838" cy="578"></circle><circle r="7" cx="274" cy="63"></circle><circle r="4" cx="168" cy="305"></circle><circle r="3" cx="156" cy="331"></circle><circle r="4" cx="123" cy="384"></circle><circle r="3" cx="707" cy="63"></circle><circle r="0" cx="639" cy="382"></circle><circle r="2" cx="726" cy="111"></circle><circle r="5" cx="141" cy="363"></circle><circle r="7" cx="506" cy="392"></circle><circle r="10" cx="247" cy="211"></circle><circle r="6" cx="491" cy="548"></circle><circle r="8" cx="822" cy="345"></circle><circle r="12" cx="744" cy="90"></circle><circle r="3" cx="372" cy="383"></circle><circle r="12" cx="195" cy="440"></circle><circle r="2" cx="893" cy="271"></circle><circle r="0" cx="548" cy="361"></circle><circle r="10" cx="585" cy="109"></circle><circle r="3" cx="890" cy="506"></circle><circle r="5" cx="431" cy="239"></circle><circle r="11" cx="70" cy="324"></circle><circle r="10" cx="517" cy="572"></circle><circle r="7" cx="418" cy="558"></circle><circle r="1" cx="363" cy="353"></circle><circle r="3" cx="108" cy="324"></circle><circle r="5" cx="71" cy="506"></circle><circle r="10" cx="288" cy="194"></circle><circle r="3" cx="441" cy="17"></circle><circle r="7" cx="72" cy="293"></circle><circle r="11" cx="615" cy="104"></circle><circle r="12" cx="377" cy="575"></circle><circle r="11" cx="112" cy="192"></circle><circle r="7" cx="7" cy="352"></circle><circle r="4" cx="183" cy="332"></circle><circle r="5" cx="7" cy="158"></circle><circle r="2" cx="540" cy="248"></circle><circle r="2" cx="277" cy="144"></circle><circle r="12" cx="185" cy="362"></circle><circle r="11" cx="160" cy="571"></circle><circle r="6" cx="202" cy="236"></circle><circle r="6" cx="804" cy="311"></circle><circle r="7" cx="455" cy="472"></circle><circle r="8" cx="32" cy="328"></circle><circle r="4" cx="652" cy="346"></circle><circle r="12" cx="425" cy="426"></circle><circle r="10" cx="477" cy="220"></circle><circle r="4" cx="767" cy="11"></circle><circle r="9" cx="815" cy="454"></circle><circle r="9" cx="62" cy="33"></circle><circle r="1" cx="594" cy="234"></circle><circle r="2" cx="382" cy="511"></circle><circle r="4" cx="885" cy="422"></circle><circle r="5" cx="362" cy="39"></circle><circle r="2" cx="475" cy="23"></circle><circle r="5" cx="897" cy="311"></circle><circle r="2" cx="595" cy="171"></circle><circle r="7" cx="695" cy="412"></circle><circle r="2" cx="169" cy="121"></circle><circle r="4" cx="810" cy="596"></circle><circle r="5" cx="55" cy="68"></circle><circle r="4" cx="827" cy="7"></circle><circle r="12" cx="85" cy="188"></circle><circle r="5" cx="503" cy="238"></circle><circle r="9" cx="87" cy="2"></circle><circle r="7" cx="204" cy="287"></circle><circle r="10" cx="161" cy="225"></circle><circle r="6" cx="882" cy="531"></circle><circle r="0" cx="503" cy="159"></circle><circle r="4" cx="772" cy="115"></circle><circle r="0" cx="861" cy="281"></circle><circle r="8" cx="884" cy="584"></circle><circle r="4" cx="491" cy="591"></circle><circle r="3" cx="711" cy="577"></circle><circle r="5" cx="137" cy="297"></circle><circle r="11" cx="279" cy="348"></circle><circle r="4" cx="562" cy="545"></circle><circle r="7" cx="405" cy="535"></circle><circle r="10" cx="892" cy="200"></circle><circle r="11" cx="604" cy="482"></circle><circle r="9" cx="284" cy="321"></circle><circle r="10" cx="354" cy="422"></circle><circle r="12" cx="891" cy="119"></circle><circle r="6" cx="493" cy="191"></circle><circle r="4" cx="237" cy="127"></circle><circle r="6" cx="237" cy="310"></circle><circle r="10" cx="686" cy="535"></circle><circle r="4" cx="499" cy="448"></circle><circle r="0" cx="842" cy="378"></circle><circle r="6" cx="224" cy="426"></circle><circle r="2" cx="866" cy="358"></circle><circle r="2" cx="70" cy="140"></circle><circle r="6" cx="394" cy="142"></circle><circle r="12" cx="85" cy="450"></circle><circle r="0" cx="246" cy="486"></circle><circle r="8" cx="147" cy="452"></circle><circle r="3" cx="7" cy="293"></circle><circle r="1" cx="285" cy="110"></circle><circle r="0" cx="136" cy="269"></circle><circle r="4" cx="207" cy="130"></circle><circle r="0" cx="300" cy="509"></circle><circle r="3" cx="865" cy="228"></circle><circle r="4" cx="411" cy="10"></circle><circle r="11" cx="564" cy="406"></circle><circle r="2" cx="160" cy="384"></circle><circle r="6" cx="743" cy="476"></circle><circle r="5" cx="325" cy="136"></circle><circle r="12" cx="537" cy="320"></circle><circle r="9" cx="23" cy="376"></circle><circle r="5" cx="6" cy="241"></circle><circle r="12" cx="513" cy="43"></circle><circle r="9" cx="398" cy="170"></circle><circle r="7" cx="41" cy="590"></circle><circle r="8" cx="331" cy="4"></circle><circle r="7" cx="697" cy="449"></circle><circle r="10" cx="699" cy="149"></circle><circle r="8" cx="99" cy="221"></circle><circle r="10" cx="684" cy="323"></circle><circle r="9" cx="653" cy="599"></circle><circle r="2" cx="321" cy="344"></circle><circle r="2" cx="532" cy="478"></circle><circle r="1" cx="95" cy="67"></circle><circle r="4" cx="453" cy="505"></circle><circle r="10" cx="606" cy="368"></circle><circle r="5" cx="447" cy="547"></circle><circle r="12" cx="427" cy="583"></circle><circle r="10" cx="623" cy="1"></circle><circle r="11" cx="536" cy="178"></circle><circle r="3" cx="561" cy="508"></circle><circle r="11" cx="205" cy="20"></circle><circle r="10" cx="390" cy="415"></circle><circle r="9" cx="113" cy="36"></circle><circle r="12" cx="753" cy="527"></circle><circle r="2" cx="653" cy="156"></circle><circle r="0" cx="427" cy="490"></circle><circle r="9" cx="846" cy="109"></circle><circle r="4" cx="657" cy="559"></circle><circle r="5" cx="501" cy="357"></circle><circle r="2" cx="724" cy="166"></circle><circle r="6" cx="760" cy="497"></circle><circle r="3" cx="346" cy="232"></circle><circle r="7" cx="645" cy="26"></circle><circle r="3" cx="754" cy="365"></circle><circle r="0" cx="663" cy="399"></circle><circle r="6" cx="295" cy="547"></circle><circle r="10" cx="105" cy="494"></circle><circle r="6" cx="335" cy="379"></circle><circle r="9" cx="801" cy="205"></circle><circle r="11" cx="597" cy="8"></circle><circle r="0" cx="714" cy="546"></circle><circle r="7" cx="830" cy="137"></circle><circle r="1" cx="569" cy="32"></circle><circle r="1" cx="170" cy="539"></circle><circle r="9" cx="256" cy="421"></circle><circle r="1" cx="228" cy="274"></circle><circle r="6" cx="842" cy="80"></circle><circle r="8" cx="72" cy="580"></circle><circle r="0" cx="755" cy="323"></circle><circle r="6" cx="378" cy="223"></circle><circle r="8" cx="857" cy="3"></circle><circle r="1" cx="740" cy="550"></circle><circle r="4" cx="134" cy="102"></circle><circle r="1" cx="526" cy="210"></circle><circle r="6" cx="602" cy="542"></circle><circle r="11" cx="339" cy="515"></circle><circle r="5" cx="584" cy="382"></circle><circle r="12" cx="792" cy="95"></circle><circle r="8" cx="421" cy="462"></circle><circle r="9" cx="614" cy="592"></circle><circle r="5" cx="3" cy="423"></circle><circle r="10" cx="35" cy="234"></circle><circle r="6" cx="173" cy="2"></circle><circle r="9" cx="538" cy="139"></circle><circle r="2" cx="12" cy="129"></circle><circle r="4" cx="714" cy="479"></circle><circle r="11" cx="312" cy="317"></circle><circle r="10" cx="853" cy="477"></circle><circle r="11" cx="266" cy="2"></circle><circle r="11" cx="178" cy="511"></circle><circle r="1" cx="753" cy="48"></circle><circle r="1" cx="402" cy="598"></circle><circle r="5" cx="333" cy="57"></circle><circle r="2" cx="576" cy="314"></circle><circle r="5" cx="191" cy="575"></circle><circle r="0" cx="58" cy="400"></circle><circle r="4" cx="838" cy="305"></circle><circle r="9" cx="781" cy="552"></circle><circle r="1" cx="373" cy="122"></circle><circle r="0" cx="669" cy="246"></circle><circle r="0" cx="605" cy="75"></circle><circle r="3" cx="639" cy="86"></circle><circle r="10" cx="707" cy="287"></circle><circle r="2" cx="47" cy="300"></circle><circle r="3" cx="477" cy="516"></circle><circle r="0" cx="180" cy="30"></circle><circle r="2" cx="865" cy="560"></circle><circle r="6" cx="80" cy="112"></circle><circle r="9" cx="218" cy="494"></circle><circle r="7" cx="12" cy="589"></circle><circle r="12" cx="1" cy="208"></circle><circle r="0" cx="679" cy="173"></circle><circle r="2" cx="892" cy="51"></circle><circle r="8" cx="174" cy="278"></circle><circle r="9" cx="827" cy="531"></circle><circle r="1" cx="228" cy="4"></circle><circle r="11" cx="252" cy="356"></circle><circle r="9" cx="26" cy="563"></circle><circle r="0" cx="813" cy="75"></circle><circle r="2" cx="318" cy="27"></circle><circle r="2" cx="774" cy="411"></circle><circle r="3" cx="899" cy="393"></circle><circle r="3" cx="480" cy="299"></circle><circle r="12" cx="782" cy="171"></circle><circle r="6" cx="770" cy="252"></circle><circle r="10" cx="173" cy="457"></circle><circle r="8" cx="674" cy="364"></circle><circle r="9" cx="116" cy="10"></circle><circle r="2" cx="313" cy="276"></circle><circle r="1" cx="93" cy="249"></circle><circle r="9" cx="846" cy="176"></circle><circle r="7" cx="22" cy="270"></circle><circle r="10" cx="734" cy="3"></circle><circle r="9" cx="623" cy="342"></circle><circle r="11" cx="623" cy="205"></circle><circle r="7" cx="284" cy="25"></circle><circle r="11" cx="443" cy="267"></circle><circle r="9" cx="528" cy="105"></circle><circle r="5" cx="196" cy="205"></circle><circle r="12" cx="177" cy="64"></circle><circle r="4" cx="395" cy="483"></circle><circle r="10" cx="777" cy="305"></circle><circle r="1" cx="43" cy="155"></circle><circle r="3" cx="658" cy="315"></circle><circle r="12" cx="812" cy="49"></circle><circle r="7" cx="345" cy="263"></circle><circle r="7" cx="895" cy="150"></circle><circle r="0" cx="745" cy="135"></circle><circle r="6" cx="560" cy="572"></circle><circle r="5" cx="757" cy="440"></circle><circle r="0" cx="868" cy="385"></circle><circle r="2" cx="425" cy="110"></circle><circle r="11" cx="714" cy="223"></circle><circle r="4" cx="52" cy="104"></circle><circle r="10" cx="131" cy="591"></circle><circle r="5" cx="12" cy="488"></circle><circle r="1" cx="702" cy="92"></circle><circle r="8" cx="257" cy="329"></circle><circle r="11" cx="891" cy="337"></circle><circle r="8" cx="393" cy="281"></circle><circle r="12" cx="491" cy="333"></circle><circle r="3" cx="626" cy="58"></circle><circle r="9" cx="592" cy="48"></circle><circle r="12" cx="648" cy="290"></circle><circle r="5" cx="685" cy="39"></circle><circle r="2" cx="671" cy="472"></circle><circle r="8" cx="536" cy="386"></circle><circle r="9" cx="343" cy="188"></circle><circle r="9" cx="132" cy="163"></circle><circle r="0" cx="145" cy="137"></circle><circle r="6" cx="515" cy="73"></circle><circle r="7" cx="763" cy="192"></circle><circle r="5" cx="214" cy="372"></circle><circle r="5" cx="251" cy="102"></circle><circle r="7" cx="220" cy="452"></circle><circle r="0" cx="721" cy="421"></circle><circle r="7" cx="29" cy="434"></circle><circle r="6" cx="46" cy="10"></circle><circle r="1" cx="799" cy="4"></circle><circle r="9" cx="543" cy="81"></circle><circle r="12" cx="3" cy="326"></circle><circle r="0" cx="132" cy="499"></circle><circle r="9" cx="6" cy="97"></circle><circle r="11" cx="229" cy="57"></circle><circle r="5" cx="516" cy="416"></circle><circle r="9" cx="897" cy="555"></circle><circle r="11" cx="856" cy="253"></circle><circle r="8" cx="222" cy="199"></circle><circle r="8" cx="640" cy="435"></circle><circle r="12" cx="674" cy="139"></circle><circle r="0" cx="680" cy="597"></circle><circle r="12" cx="127" cy="213"></circle><circle r="8" cx="567" cy="3"></circle><circle r="4" cx="470" cy="450"></circle><circle r="1" cx="425" cy="518"></circle><circle r="4" cx="477" cy="52"></circle><circle r="0" cx="346" cy="333"></circle><circle r="4" cx="735" cy="275"></circle><circle r="3" cx="861" cy="59"></circle><circle r="3" cx="506" cy="475"></circle><circle r="0" cx="480" cy="270"></circle><circle r="2" cx="348" cy="448"></circle><circle r="9" cx="855" cy="597"></circle><circle r="2" cx="488" cy="106"></circle><circle r="7" cx="419" cy="363"></circle><circle r="4" cx="180" cy="145"></circle><circle r="9" cx="698" cy="195"></circle><circle r="6" cx="601" cy="305"></circle><circle r="4" cx="353" cy="555"></circle><circle r="9" cx="431" cy="195"></circle><circle r="10" cx="295" cy="83"></circle><circle r="3" cx="569" cy="176"></circle><circle r="8" cx="309" cy="456"></circle><circle r="11" cx="456" cy="154"></circle><circle r="2" cx="158" cy="89"></circle><circle r="7" cx="416" cy="264"></circle><circle r="2" cx="261" cy="298"></circle><circle r="9" cx="563" cy="337"></circle><circle r="7" cx="803" cy="365"></circle><circle r="4" cx="898" cy="445"></circle><circle r="10" cx="456" cy="402"></circle><circle r="12" cx="469" cy="563"></circle><circle r="7" cx="98" cy="563"></circle><circle r="10" cx="237" cy="544"></circle><circle r="7" cx="898" cy="471"></circle><circle r="8" cx="552" cy="455"></circle><circle r="5" cx="421" cy="400"></circle><circle r="12" cx="564" cy="231"></circle><circle r="3" cx="622" cy="161"></circle><circle r="6" cx="122" cy="69"></circle><circle r="3" cx="735" cy="385"></circle><circle r="2" cx="359" cy="2"></circle><circle r="11" cx="808" cy="510"></circle><circle r="8" cx="143" cy="404"></circle></g></svg>