<svg xmlns="http://www.w3.org/2000/svg" xmlns:xlink="http://www.w3.org/1999/xlink" width="500" height="500" viewBox="0 0 500 500"><defs><style>.a{clip-path:url(#b);}.b{fill:#9e212b;}.c{fill:#fff;}</style><clipPath id="b"><rect width="500" height="500"/></clipPath></defs><g id="a" class="a"><rect class="c" width="500" height="500"/><g transform="translate(-26.571 -69.468)"><g transform="translate(137.321 180.221)"><path class="b" d="M276.575,458.715c-76.786,0-139.254-62.468-139.254-139.247s62.468-139.247,139.254-139.247,139.247,62.468,139.247,139.247S353.354,458.715,276.575,458.715Zm0-264.125A124.878,124.878,0,1,0,401.453,319.468,125.025,125.025,0,0,0,276.575,194.59Z" transform="translate(-137.321 -180.221)"/><g transform="translate(87.514 96.334)"><path class="b" d="M191.141,279.455a7.193,7.193,0,0,1-4.749-1.789c-12.177-10.719-33-29.3-35.685-33.307a7.185,7.185,0,0,1,11.876-8.089c1.94,2.436,15.145,14.52,28.385,26.259l70.507-66.922a7.183,7.183,0,1,1,9.893,10.417l-75.285,71.455A7.148,7.148,0,0,1,191.141,279.455Z" transform="translate(-149.502 -193.63)"/></g></g></g></g></svg>