<svg id="visual" viewBox="0 0 900 600" width="900" height="600" xmlns="http://www.w3.org/2000/svg" xmlns:xlink="http://www.w3.org/1999/xlink" version="1.1"><rect x="0" y="0" width="900" height="600" fill="#ffffff"></rect><path d="M0 441L225 390L450 423L675 409L900 432L900 601L675 601L450 601L225 601L0 601Z" fill="#871400"></path><path d="M0 464L225 498L450 474L675 482L900 476L900 601L675 601L450 601L225 601L0 601Z" fill="#a65242"></path><path d="M0 542L225 534L450 528L675 495L900 521L900 601L675 601L450 601L225 601L0 601Z" fill="#ba8880"></path></svg>