<svg xmlns="http://www.w3.org/2000/svg" xmlns:xlink="http://www.w3.org/1999/xlink" width="200" height="200" viewBox="0 0 200 200"><defs><style>.a{clip-path:url(#b);}.b{fill:#b7141f;}.c{fill:#fff;}</style><clipPath id="b"><rect width="200" height="200"/></clipPath></defs><g id="a" class="a"><rect class="c" width="200" height="200"/><g transform="translate(-123.919 -166.816)"><g transform="translate(137.321 180.221)"><path class="b" d="M223.921,353.412a86.6,86.6,0,1,1,86.6-86.6A86.7,86.7,0,0,1,223.921,353.412Zm0-164.255a77.66,77.66,0,1,0,77.66,77.66A77.751,77.751,0,0,0,223.921,189.157Z" transform="translate(-137.321 -180.221)"/></g><g transform="translate(191.744 240.13)"><path class="b" d="M175.4,247a4.474,4.474,0,0,1-2.953-1.112c-7.573-6.666-20.525-18.22-22.192-20.713a4.468,4.468,0,0,1,7.385-5.031c1.206,1.515,9.418,9.029,17.652,16.33l43.847-41.618a4.467,4.467,0,1,1,6.152,6.478l-46.818,44.437A4.445,4.445,0,0,1,175.4,247Z" transform="translate(-149.502 -193.63)"/></g></g></g></svg>