<svg xmlns="http://www.w3.org/2000/svg" xmlns:xlink="http://www.w3.org/1999/xlink" width="500" height="500" viewBox="0 0 500 500"><defs><style>.a{clip-path:url(#b);}.b{fill:#e8505b;}.c{fill:#fff;}</style><clipPath id="b"><rect width="500" height="500"/></clipPath></defs><g id="a" class="a"><rect class="c" width="500" height="500"/><g transform="translate(169.012 169.014)"><path class="b" d="M218.311,342.194A80.986,80.986,0,1,1,299.3,261.207,81.08,81.08,0,0,1,218.311,342.194Zm0-153.616a72.629,72.629,0,1,0,72.629,72.629A72.715,72.715,0,0,0,218.311,188.578Z" transform="translate(-137.321 -180.221)"/><g transform="translate(50.898 56.028)"><path class="b" d="M173.72,243.546a4.184,4.184,0,0,1-2.762-1.04c-7.082-6.234-19.2-17.04-20.754-19.371a4.179,4.179,0,0,1,6.907-4.7c1.128,1.417,8.808,8.445,16.509,15.272l41.007-38.922a4.178,4.178,0,1,1,5.754,6.059L176.594,242.4A4.157,4.157,0,0,1,173.72,243.546Z" transform="translate(-149.502 -193.63)"/></g></g><g transform="translate(74.482 93.912)"><g transform="translate(316.433 302.708)"><path class="b" d="M234.587,205.759c-1.844-6.534-10.336-5.9-10.336-5.9l.233,4.544c4.909-.846,7.96,4.907,7.96,4.907Z" transform="translate(-224.251 -199.842)"/></g><g transform="translate(181.604 144.203)"><path class="b" d="M151.036,129.745c-4.584.486-5.132,6.242-5.132,6.242l3.068.364c-.005-3.382,4.194-4.765,4.194-4.765Z" transform="translate(-145.904 -129.745)"/></g><g transform="translate(256.997)"><path class="b" d="M193.72,68.768c2.8,7.125,12.252,5.468,12.252,5.468l-.767-5.072c-5.413,1.5-9.476-4.618-9.476-4.618Z" transform="translate(-193.72 -64.546)"/></g><g transform="translate(83.476 291.997)"><path class="b" d="M87.085,189.131c-4.584.487-5.132,6.242-5.132,6.242l3.068.364c-.005-3.382,4.195-4.765,4.195-4.765Z" transform="translate(-81.953 -189.131)"/></g><g transform="translate(111.071 20.469)"><path class="b" d="M105.972,91.535c.666-4.562-4.773-6.52-4.773-6.52L100.085,87.9c3.277.835,3.575,5.246,3.575,5.246Z" transform="translate(-100.085 -85.015)"/></g><g transform="translate(0 212.419)"><path class="b" d="M27.6,161.545c-.823,7.153,8.651,8.884,8.651,8.884l1.71-4.68c-5.685-.513-6.505-7.209-6.505-7.209Z" transform="translate(-27.551 -158.54)"/></g><g transform="translate(343.157 124.321)"><path class="b" d="M252.779,127.032c4.6.262,6.075-5.328,6.075-5.328l-2.968-.857c-.543,3.339-4.911,4.023-4.911,4.023Z" transform="translate(-250.975 -120.847)"/></g></g></g></svg>